<?xml version="1.0" encoding="UTF-8" standalone="no"?>
<!DOCTYPE svg PUBLIC "-//W3C//DTD SVG 1.1//EN" "http://www.w3.org/Graphics/SVG/1.1/DTD/svg11.dtd">
<svg width="100%" height="100%" viewBox="0 0 128 128" version="1.1" xmlns="http://www.w3.org/2000/svg" xmlns:xlink="http://www.w3.org/1999/xlink" xml:space="preserve" xmlns:serif="http://www.serif.com/" style="fill-rule:evenodd;clip-rule:evenodd;stroke-linejoin:round;stroke-miterlimit:2;">
    <g transform="matrix(-1.07452,0,0,-1.07452,121.917,127.934)">
        <path d="M11.1,90.7L43.3,109.3L52.7,114.7C55.5,116.3 58.7,117.2 62.1,117.2C65.5,117.2 68.8,116.3 71.5,114.7L96.8,100.1C102.4,96.8 106.2,90.7 106.2,83.8L106.2,72.5L84.4,59L43.3,82.8L29.7,90.7C27,92.2 23.8,93.2 20.4,93.2C17,93.1 13.8,92.3 11.1,90.7Z" style="fill:url(#_Linear1);"/>
      <path d="M106.2,35.3L106.2,83.4C106.2,76.4 102.4,70.3 96.8,67L83.7,59.4L43.2,36.1L43.2,9.9L53.6,3.9C56.2,2.6 59.1,1.8 62.2,1.8C65.6,1.8 68.9,2.7 71.6,4.3L96.3,18.6C102.3,21.9 106.2,28.2 106.2,35.3Z" style="fill:url(#_Linear2);"/>
      <path d="M11.1,90.7C5.4,87.5 1.6,81.4 1.6,74.4L1.6,44.8C1.6,38.2 5,32.4 10.1,29L20.6,23L51.6,5.1C46.6,8.5 43.2,14.3 43.2,20.9L43.2,82.9L29.6,90.8C26.9,92.4 23.7,93.3 20.3,93.3C17,93.1 13.8,92.3 11.1,90.7Z" style="fill:url(#_Linear3);"/>
    </g>
  <defs>
        <linearGradient id="_Linear1" x1="0" y1="0" x2="1" y2="0" gradientUnits="userSpaceOnUse" gradientTransform="matrix(33.1285,-52.5186,52.5186,33.1285,40.9161,118.057)"><stop offset="0" style="stop-color:rgb(198,222,137);stop-opacity:1"/><stop offset="0.11" style="stop-color:rgb(198,222,137);stop-opacity:1"/><stop offset="0.31" style="stop-color:rgb(146,188,113);stop-opacity:1"/><stop offset="0.63" style="stop-color:rgb(83,148,83);stop-opacity:1"/><stop offset="0.87" style="stop-color:rgb(41,126,67);stop-opacity:1"/><stop offset="1" style="stop-color:rgb(17,119,61);stop-opacity:1"/></linearGradient>
    <linearGradient id="_Linear2" x1="0" y1="0" x2="1" y2="0" gradientUnits="userSpaceOnUse" gradientTransform="matrix(62.9477,0,0,62.9477,43.2452,42.6375)"><stop offset="0" style="stop-color:rgb(17,119,61);stop-opacity:1"/><stop offset="0.23" style="stop-color:rgb(17,119,61);stop-opacity:1"/><stop offset="0.33" style="stop-color:rgb(34,124,65);stop-opacity:1"/><stop offset="0.5" style="stop-color:rgb(66,138,76);stop-opacity:1"/><stop offset="0.7" style="stop-color:rgb(110,164,96);stop-opacity:1"/><stop offset="0.93" style="stop-color:rgb(173,205,125);stop-opacity:1"/><stop offset="1" style="stop-color:rgb(198,222,137);stop-opacity:1"/></linearGradient>
    <linearGradient id="_Linear3" x1="0" y1="0" x2="1" y2="0" gradientUnits="userSpaceOnUse" gradientTransform="matrix(0.1571,-50.0276,50.0276,0.1571,26.4686,72.9548)"><stop offset="0" style="stop-color:rgb(17,119,61);stop-opacity:1"/><stop offset="1" style="stop-color:rgb(198,222,137);stop-opacity:1"/></linearGradient>
    </defs>
</svg>
